
<svg width="32" height="32" viewBox="0 0 32 32" xmlns="http://www.w3.org/2000/svg">
  <defs>
    <!-- 球体渐变 - 模拟光照 -->
    <radialGradient id="sphereShading" cx="0.35" cy="0.35" r="0.8">
      <stop offset="0%" stop-color="#FFFFFF"/>
      <stop offset="30%" stop-color="#E0E0E0"/>
      <stop offset="60%" stop-color="#999999"/>
      <stop offset="85%" stop-color="#666666"/>
      <stop offset="100%" stop-color="#333333"/>
    </radialGradient>

    <!-- 高光渐变 -->
    <radialGradient id="highlight" cx="0.5" cy="0.5" r="0.6">
      <stop offset="0%" stop-color="#FFFFFF" stop-opacity="1"/>
      <stop offset="70%" stop-color="#FFFFFF" stop-opacity="0.3"/>
      <stop offset="100%" stop-color="#FFFFFF" stop-opacity="0"/>
    </radialGradient>
  </defs>

  <!-- 背景 -->
  <rect width="32" height="32" fill="none"/>

  <!-- 阴影 -->
  <ellipse cx="18" cy="27" rx="7" ry="2" fill="#CCCCCC" opacity="0.6"/>

  <!-- 主球体 - 带光照渐变 -->
  <circle cx="16" cy="16" r="10" fill="url(#sphereShading)" stroke="#333333" stroke-width="1"/>

  <!-- 主高光 -->
  <ellipse cx="12" cy="12" rx="3" ry="2.5" fill="url(#highlight)"/>

  <!-- 次要高光点 -->
  <circle cx="11" cy="11" r="1.5" fill="#FFFFFF" opacity="0.8"/>
  <circle cx="10" cy="10" r="0.8" fill="#FFFFFF"/>

  <!-- 反射光 -->
  <ellipse cx="20" cy="20" rx="1.5" ry="1" fill="#FFFFFF" opacity="0.4"/>

  <!-- 材质属性指示线 -->
  <g stroke="#666666" stroke-width="0.8" fill="none" opacity="0.7">
    <!-- 表面法线指示 -->
    <line x1="10" y1="10" x2="8" y2="8"/>
    <line x1="22" y1="10" x2="24" y2="8"/>
    <line x1="22" y1="22" x2="24" y2="24"/>
  </g>

  <!-- 光源指示 -->
  <g fill="#FFD700" opacity="0.8">
    <circle cx="8" cy="8" r="1"/>
    <g stroke="#FFD700" stroke-width="0.5">
      <line x1="6" y1="8" x2="4" y2="8"/>
      <line x1="8" y1="6" x2="8" y2="4"/>
      <line x1="6.5" y1="6.5" x2="5.5" y2="5.5"/>
      <line x1="9.5" y1="6.5" x2="10.5" y2="5.5"/>
    </g>
  </g>
</svg>
