
<svg width="32" height="32" viewBox="0 0 32 32" xmlns="http://www.w3.org/2000/svg">
  <!-- 背景 -->
  <rect width="32" height="32" fill="none"/>

  <!-- 立方体网格 -->
  <g stroke="#333333" stroke-width="1.5" fill="none">
    <!-- 前面 -->
    <rect x="6" y="12" width="12" height="12"/>

    <!-- 后面 -->
    <rect x="14" y="8" width="12" height="12"/>

    <!-- 连接线 -->
    <line x1="6" y1="12" x2="14" y2="8"/>
    <line x1="18" y1="12" x2="26" y2="8"/>
    <line x1="18" y1="24" x2="26" y2="20"/>
    <line x1="6" y1="24" x2="14" y2="20"/>

    <!-- 内部网格线 -->
    <line x1="10" y1="12" x2="10" y2="24"/>
    <line x1="14" y1="12" x2="14" y2="24"/>
    <line x1="6" y1="16" x2="18" y2="16"/>
    <line x1="6" y1="20" x2="18" y2="20"/>

    <line x1="18" y1="8" x2="18" y2="20"/>
    <line x1="22" y1="8" x2="22" y2="20"/>
    <line x1="14" y1="12" x2="26" y2="12"/>
    <line x1="14" y1="16" x2="26" y2="16"/>
  </g>

  <!-- 顶点 -->
  <g fill="#333333">
    <circle cx="6" cy="12" r="1"/>
    <circle cx="18" cy="12" r="1"/>
    <circle cx="18" cy="24" r="1"/>
    <circle cx="6" cy="24" r="1"/>
    <circle cx="14" cy="8" r="1"/>
    <circle cx="26" cy="8" r="1"/>
    <circle cx="26" cy="20" r="1"/>
    <circle cx="14" cy="20" r="1"/>
  </g>
</svg>
